<svg width="77" height="73" viewBox="0 0 77 73" fill="none" xmlns="http://www.w3.org/2000/svg">
<path d="M46.5322 3.942L38.5002 0L30.4681 3.942L21.5265 5.22863L17.4744 12.8936L11.04 18.9161L12.5127 27.375L11.04 35.8339L17.4744 41.8564L21.5265 49.5214L30.4681 50.808L38.5002 54.75L46.5322 50.808L55.4739 49.5214L59.526 41.8564L65.9603 35.8339L64.4877 27.375L65.9603 18.9161L59.526 12.8936L55.4739 5.22863L46.5322 3.942ZM52.288 9.38506L55.5797 15.6129L60.8061 20.5039L59.6126 27.375L60.8061 34.2461L55.5797 39.1371L52.288 45.3649L45.0211 46.4097L38.5002 49.6126L31.9792 46.4097L24.7124 45.3649L21.4206 39.1371L16.1942 34.2461L17.3925 27.375L16.1894 20.5039L21.4206 15.6129L24.7124 9.38506L31.9792 8.34025L38.5002 5.13738L45.0259 8.34025L52.288 9.38506Z" fill="#FFCD44"/>
<path d="M19.25 53.8101V72.9999L38.5 68.4374L57.75 72.9999V53.8101L48.0384 55.2062L38.5 59.8873L28.9616 55.2062L19.25 53.8101Z" fill="#FFCD44"/>
</svg>
